# xmcd CD database file
#
# Track frame offsets:
#	150
#	14124
#	28105
#	40596
#	53226
#	67451
#	79397
#	93895
#	108085
#	121415
#	135178
#	147302
#	161448
#	174797
#	188634
#
# Disc length: 2704 seconds
#
# Revision: 5
# Processed by: cddbd v1.5.2PL0 Copyright (c) Steve Scherf et al.
# Submitted via: CDex 1.70beta2
#
DISCID=c40a8e0f
DTITLE=Kokomo Arnold - Midnight Blues - Disc 1
DYEAR=1900
DGENRE=Blues
TTITLE0=Backfence Picket Blues
TTITLE1=Fool Man Blues
TTITLE2=Long And Tall
TTITLE3=Sally Dog
TTITLE4=Cold Winter Blues
TTITLE5=Sister Jane Cross The Hall
TTITLE6=Wild Water Blues
TTITLE7=Laugh And Grin Blues
TTITLE8=Mean Old Twister
TTITLE9=Red Beans And Rice
TTITLE10=Set Down Gal
TTITLE11=Big Ship Blues
TTITLE12=Crying Blues
TTITLE13=Grandpa Got Drunk
TTITLE14=Black Mattie
EXTD=1- 6: Chicago, January 12, 1937 - Kokomo Arnold: vocals, guitar\n 7- 8: Chicago, March 12, 1937 - Kokomo Arnold: vocals, guitar\n 9-10: Chicago, Narch 30, 1937 - Kokomo Arnold: vocals, guitar\n11-12: Chicago, March 30,1937 - Kokomo Arnold: vocals, g
EXTD=uitar, Peetie Wheatstraw: piano\n13-15: Chicago, May 7, 1937 - Kokomo Arnold: vocals, guitar\n\nAll songs by JamesArnold
EXTT0=
EXTT1=
EXTT2=
EXTT3=
EXTT4=
EXTT5=
EXTT6=
EXTT7=
EXTT8=
EXTT9=
EXTT10=
EXTT11=
EXTT12=
EXTT13=
EXTT14=
PLAYORDER=
